/vscmnt/brussel_pixiu_data/_data_brussel/112/vsc11236/PredSimResults/SUBJ06_Dhondt2024_3seg/weighted-LRposFixed/worker_05.mot
version=1
nRows=4
nColumns=124
inDegrees=yes
endheader
                time	         pelvis_tilt	         pelvis_list	     pelvis_rotation	           pelvis_tx	           pelvis_ty	           pelvis_tz	       hip_flexion_r	     hip_adduction_r	      hip_rotation_r	        knee_angle_r	       ankle_angle_r	    subtalar_angle_r	         mtp_angle_r	       hip_flexion_l	     hip_adduction_l	      hip_rotation_l	        knee_angle_l	       ankle_angle_l	    subtalar_angle_l	         mtp_angle_l	    lumbar_extension	      lumbar_bending	     lumbar_rotation	          arm_flex_r	           arm_add_r	           arm_rot_r	        elbow_flex_r	          arm_flex_l	           arm_add_l	           arm_rot_l	        elbow_flex_l	glut_med1_r/activation	glut_med2_r/activation	glut_med3_r/activation	glut_min1_r/activation	glut_min2_r/activation	glut_min3_r/activation	semimem_r/activation	semiten_r/activation	bifemlh_r/activation	bifemsh_r/activation	    sar_r/activation	add_long_r/activation	add_brev_r/activation	add_mag1_r/activation	add_mag2_r/activation	add_mag3_r/activation	    tfl_r/activation	   pect_r/activation	   grac_r/activation	glut_max1_r/activation	glut_max2_r/activation	glut_max3_r/activation	iliacus_r/activation	  psoas_r/activation	quad_fem_r/activation	    gem_r/activation	   peri_r/activation	rect_fem_r/activation	vas_med_r/activation	vas_int_r/activation	vas_lat_r/activation	med_gas_r/activation	lat_gas_r/activation	 soleus_r/activation	tib_post_r/activation	flex_dig_r/activation	flex_hal_r/activation	tib_ant_r/activation	per_brev_r/activation	per_long_r/activation	per_tert_r/activation	ext_dig_r/activation	ext_hal_r/activation	glut_med1_l/activation	glut_med2_l/activation	glut_med3_l/activation	glut_min1_l/activation	glut_min2_l/activation	glut_min3_l/activation	semimem_l/activation	semiten_l/activation	bifemlh_l/activation	bifemsh_l/activation	    sar_l/activation	add_long_l/activation	add_brev_l/activation	add_mag1_l/activation	add_mag2_l/activation	add_mag3_l/activation	    tfl_l/activation	   pect_l/activation	   grac_l/activation	glut_max1_l/activation	glut_max2_l/activation	glut_max3_l/activation	iliacus_l/activation	  psoas_l/activation	quad_fem_l/activation	    gem_l/activation	   peri_l/activation	rect_fem_l/activation	vas_med_l/activation	vas_int_l/activation	vas_lat_l/activation	med_gas_l/activation	lat_gas_l/activation	 soleus_l/activation	tib_post_l/activation	flex_dig_l/activation	flex_hal_l/activation	tib_ant_l/activation	per_brev_l/activation	per_long_l/activation	per_tert_l/activation	ext_dig_l/activation	ext_hal_l/activation	 ercspn_r/activation	 ercspn_l/activation	 intobl_r/activation	 intobl_l/activation	 extobl_r/activation	 extobl_l/activation	
          1.86514743	         -2.93005888	          1.66241998	         -1.94016965	          1.84649595	          0.93167541	          0.00311786	        -14.20753624	          1.55062955	         11.03586832	         -5.28073727	          6.52078528	         -5.32527318	         16.98018134	         24.56006420	          3.61236538	          3.34558276	         -4.79040454	          4.76762950	         -6.48294961	          0.19025359	         -4.39010356	         -0.61934140	          1.36922824	          0.92671495	        -13.50012517	         19.25491809	         49.44718569	         -3.72898653	        -13.45006938	         18.52248796	         25.41353344	          0.29458157	          0.14658872	          0.08205697	          0.40391081	          0.32598590	          0.21070270	          0.01001002	          0.01000213	          0.01000225	          0.05350002	          0.11952239	          0.01000031	          0.01000045	          0.01000097	          0.01000382	          0.01000256	          0.42673509	          0.01000142	          0.01000215	          0.02568144	          0.01781798	          0.01001394	          0.31324690	          0.44687285	          0.01759255	          0.02123861	          0.10899649	          0.28006753	          0.01000338	          0.01000369	          0.01000342	          0.45542441	          0.53550394	          0.45467099	          0.26598300	          0.30372382	          0.39319655	          0.01234583	          0.26538039	          0.30632832	          0.01569155	          0.01457450	          0.01255531	          0.01457434	          0.01085431	          0.01000170	          0.01457298	          0.01046355	          0.01000518	          0.18893240	          0.03712705	          0.03082762	          0.01000075	          0.01000172	          0.11475368	          0.21645359	          0.15412187	          0.16441077	          0.09072920	          0.01000266	          0.01707713	          0.05586378	          0.01413021	          0.01457650	          0.06755909	          0.01387406	          0.01232638	          0.01482870	          0.01000152	          0.01000099	          0.01000300	          0.10752809	          0.10541700	          0.08826358	          0.01000032	          0.01000066	          0.01000069	          0.01189080	          0.01000732	          0.01001112	          0.24042363	          0.23901159	          0.15603047	          0.13681524	          0.32744094	          0.03222752	          0.01000005	          0.02663801	          0.01000009	          0.05088894	          0.01000016	          0.08413255	
          1.87758174	         -2.92947408	          1.94361470	         -2.09310312	          1.86158329	          0.93102135	          0.00288530	        -14.47163567	          1.27622413	         10.64251564	         -6.47113113	          5.94217585	         -5.09879418	         18.23546016	         23.65136151	          4.08117298	          3.49482740	         -3.88043629	          3.60950431	         -6.81974677	          0.20714997	         -4.22831356	         -1.09091015	          1.44505085	          0.34496064	        -13.52815297	         19.24002670	         51.16668083	         -4.16321721	        -13.45149269	         18.37744910	         24.27090025	          0.34512163	          0.12142490	          0.06797084	          0.33458052	          0.27002662	          0.17453294	          0.01000530	          0.01000146	          0.01000109	          0.04431616	          0.09900582	          0.01000668	          0.01000240	          0.01000342	          0.01000922	          0.01000327	          0.35348390	          0.01012316	          0.01005709	          0.02127389	          0.01476036	          0.01000891	          0.28045284	          0.37016818	          0.01457351	          0.01759358	          0.09028586	          0.25342793	          0.01000391	          0.01000431	          0.01000389	          0.42056449	          0.49766873	          0.43129260	          0.26050016	          0.30563942	          0.38830750	          0.01022653	          0.21982665	          0.30316819	          0.01299797	          0.01207263	          0.01040019	          0.01207261	          0.01045675	          0.01000112	          0.01207266	          0.01207157	          0.01000710	          0.16301971	          0.03075404	          0.02553589	          0.01000051	          0.01000118	          0.09505682	          0.20813579	          0.20216144	          0.15817797	          0.07515527	          0.01000179	          0.02663055	          0.04627593	          0.01170635	          0.01207469	          0.05596885	          0.01149261	          0.01021058	          0.11320242	          0.05024140	          0.01000253	          0.01759361	          0.08907379	          0.08732477	          0.07311580	          0.01000008	          0.01000017	          0.01000004	          0.01000012	          0.01000084	          0.01000069	          0.24748134	          0.21066237	          0.14262405	          0.14243513	          0.36097944	          0.02669595	          0.01000039	          0.02206531	          0.01308801	          0.04215320	          0.01000033	          0.06969010	
          1.89001606	         -2.92430040	          2.22833107	         -2.23635225	          1.87702027	          0.93041148	          0.00265085	        -14.66742819	          0.99305576	         10.21756442	         -7.80222580	          5.21729585	         -4.80582675	         19.57053301	         22.73132888	          4.52550687	          3.67281684	         -3.54466367	          2.01223667	         -7.14379153	          0.21980264	         -4.04543739	         -1.57283278	          1.51323974	         -0.30429085	        -13.55792680	         19.22066909	         52.86337101	         -4.63584077	        -13.46483155	         18.28568112	         23.17969976	          0.28587926	          0.10058076	          0.05630277	          0.27715524	          0.22367328	          0.14457216	          0.01000885	          0.01000151	          0.01000124	          0.03670882	          0.08201068	          0.01000406	          0.01000180	          0.01000295	          0.01000869	          0.01000447	          0.29280439	          0.01000538	          0.01000468	          0.01762274	          0.01222750	          0.01000626	          0.23483586	          0.31560928	          0.01207214	          0.01457400	          0.07478714	          0.22419625	          0.01027713	          0.01067168	          0.01205968	          0.38382296	          0.45459933	          0.40270295	          0.24571486	          0.29779834	          0.37666940	          0.01000007	          0.18254304	          0.30537777	          0.01076684	          0.01000030	          0.01000048	          0.01000026	          0.01000018	          0.01000063	          0.01000053	          0.01000038	          0.01000041	          0.13503533	          0.02547525	          0.02115253	          0.01000252	          0.01456862	          0.07874005	          0.19620976	          0.16746286	          0.13102596	          0.06225408	          0.01000076	          0.02214610	          0.12050626	          0.01000049	          0.01000237	          0.04636131	          0.01457902	          0.01458632	          0.20688544	          0.04162344	          0.01000211	          0.01457373	          0.07378344	          0.07233470	          0.06056485	          0.01457467	          0.01457895	          0.01268434	          0.01457566	          0.01432679	          0.01457506	          0.20499849	          0.19274742	          0.13881224	          0.11798449	          0.42126193	          0.02211350	          0.01284620	          0.01827757	          0.01457369	          0.03491707	          0.01000094	          0.05772688	
          1.90245037	         -2.91605352	          2.52643779	         -2.36614746	          1.89269646	          0.92989524	          0.00243969	        -14.76734996	          0.69484679	          9.74874333	         -9.30083845	          4.32146044	         -4.45451648	         20.97227006	         21.76773886	          4.91875045	          3.89649448	         -3.31084424	          0.15367616	         -7.46597925	          0.22002086	         -3.84919167	         -2.07739682	          1.57065156	         -1.00139007	        -13.57951006	         19.19779298	         54.51554053	         -5.12507580	        -13.49673899	         18.27385663	         22.13256690	          0.31103358	          0.08331478	          0.04663767	          0.37106760	          0.18527707	          0.11975452	          0.01001238	          0.01000174	          0.01000102	          0.03040737	          0.06793281	          0.01000203	          0.01000464	          0.01000407	          0.01001081	          0.01000452	          0.24254121	          0.10945119	          0.01000485	          0.01459830	          0.01012962	          0.01000428	          0.19452899	          0.28476625	          0.01000079	          0.01207276	          0.06194898	          0.18571027	          0.01000824	          0.01000817	          0.01000666	          0.32971690	          0.40081504	          0.36245688	          0.22584734	          0.25281362	          0.32731965	          0.01000013	          0.15264376	          0.29523711	          0.01000071	          0.01000026	          0.01000086	          0.21941338	          0.20305803	          0.20897782	          0.07253982	          0.01001660	          0.17666229	          0.11185481	          0.05109113	          0.02946338	          0.01760250	          0.01207237	          0.06522340	          0.16252790	          0.13871607	          0.10853415	          0.05156767	          0.01002794	          0.01834555	          0.09982048	          0.01962668	          0.01002107	          0.03840309	          0.01207652	          0.01208255	          0.17137103	          0.03447927	          0.08530219	          0.01207207	          0.06111787	          0.05991787	          0.05016843	          0.01207276	          0.01207633	          0.01050692	          0.01207360	          0.01186764	          0.01207324	          0.39182412	          0.26600626	          0.14562968	          0.51774749	          0.51500366	          0.20631918	          0.03685653	          0.01841899	          0.01207195	          0.02892316	          0.01000050	          0.04781731	
